<mxfile host="Electron" modified="2023-10-22T10:34:26.427Z" agent="Mozilla/5.0 (Windows NT 10.0; Win64; x64) AppleWebKit/537.36 (KHTML, like Gecko) draw.io/21.6.8 Chrome/114.0.5735.289 Electron/25.5.0 Safari/537.36" etag="hRe1Az-7EN9Iu99KFzlG" version="21.6.8" type="device">
  <diagram name="第 1 页" id="XUpWLtqvBVoye0mg7G6P">
    <mxGraphModel dx="439" dy="306" grid="1" gridSize="10" guides="1" tooltips="1" connect="1" arrows="1" fold="1" page="1" pageScale="1" pageWidth="827" pageHeight="1169" math="0" shadow="0">
      <root>
        <mxCell id="0" />
        <mxCell id="1" parent="0" />
        <mxCell id="D2boBdj_0Zb_IWKGCsvH-1" value="" style="shape=umlActor;verticalLabelPosition=bottom;verticalAlign=top;html=1;" vertex="1" parent="1">
          <mxGeometry x="60" y="40" width="30" height="60" as="geometry" />
        </mxCell>
        <mxCell id="D2boBdj_0Zb_IWKGCsvH-2" value="User" style="shape=umlLifeline;perimeter=lifelinePerimeter;whiteSpace=wrap;html=1;container=1;dropTarget=0;collapsible=0;recursiveResize=0;outlineConnect=0;portConstraint=eastwest;newEdgeStyle={&quot;edgeStyle&quot;:&quot;elbowEdgeStyle&quot;,&quot;elbow&quot;:&quot;vertical&quot;,&quot;curved&quot;:0,&quot;rounded&quot;:0};" vertex="1" parent="1">
          <mxGeometry x="30" y="110" width="100" height="610" as="geometry" />
        </mxCell>
        <mxCell id="D2boBdj_0Zb_IWKGCsvH-3" value="HomePage&lt;br&gt;:GUI" style="shape=umlLifeline;perimeter=lifelinePerimeter;whiteSpace=wrap;html=1;container=1;dropTarget=0;collapsible=0;recursiveResize=0;outlineConnect=0;portConstraint=eastwest;newEdgeStyle={&quot;edgeStyle&quot;:&quot;elbowEdgeStyle&quot;,&quot;elbow&quot;:&quot;vertical&quot;,&quot;curved&quot;:0,&quot;rounded&quot;:0};" vertex="1" parent="1">
          <mxGeometry x="190" y="165" width="130" height="555" as="geometry" />
        </mxCell>
        <mxCell id="D2boBdj_0Zb_IWKGCsvH-4" value="" style="html=1;points=[];perimeter=orthogonalPerimeter;outlineConnect=0;targetShapes=umlLifeline;portConstraint=eastwest;newEdgeStyle={&quot;edgeStyle&quot;:&quot;elbowEdgeStyle&quot;,&quot;elbow&quot;:&quot;vertical&quot;,&quot;curved&quot;:0,&quot;rounded&quot;:0};" vertex="1" parent="D2boBdj_0Zb_IWKGCsvH-3">
          <mxGeometry x="60" y="60" width="10" height="470" as="geometry" />
        </mxCell>
        <mxCell id="D2boBdj_0Zb_IWKGCsvH-31" value="[activityList != null]&lt;br&gt;display(activityList)" style="html=1;align=center;spacingLeft=2;endArrow=block;rounded=0;edgeStyle=orthogonalEdgeStyle;curved=0;rounded=0;" edge="1" target="D2boBdj_0Zb_IWKGCsvH-4" parent="D2boBdj_0Zb_IWKGCsvH-3" source="D2boBdj_0Zb_IWKGCsvH-4">
          <mxGeometry x="0.0909" y="-50" relative="1" as="geometry">
            <mxPoint x="-60" y="135" as="sourcePoint" />
            <Array as="points">
              <mxPoint x="20" y="135" />
              <mxPoint x="20" y="165" />
            </Array>
            <mxPoint x="-55" y="165" as="targetPoint" />
            <mxPoint as="offset" />
          </mxGeometry>
        </mxCell>
        <mxCell id="D2boBdj_0Zb_IWKGCsvH-5" value="input URL&lt;br&gt;&amp;lt;&amp;lt;create&amp;gt;&amp;gt;" style="html=1;verticalAlign=bottom;endArrow=block;edgeStyle=elbowEdgeStyle;elbow=vertical;curved=0;rounded=0;entryX=0;entryY=0.06;entryDx=0;entryDy=0;entryPerimeter=0;" edge="1" parent="1">
          <mxGeometry width="80" relative="1" as="geometry">
            <mxPoint x="80.10000000000002" y="180.09999999999997" as="sourcePoint" />
            <mxPoint x="190" y="180" as="targetPoint" />
            <Array as="points" />
          </mxGeometry>
        </mxCell>
        <mxCell id="D2boBdj_0Zb_IWKGCsvH-6" value=":System" style="shape=umlLifeline;perimeter=lifelinePerimeter;whiteSpace=wrap;html=1;container=1;dropTarget=0;collapsible=0;recursiveResize=0;outlineConnect=0;portConstraint=eastwest;newEdgeStyle={&quot;edgeStyle&quot;:&quot;elbowEdgeStyle&quot;,&quot;elbow&quot;:&quot;vertical&quot;,&quot;curved&quot;:0,&quot;rounded&quot;:0};" vertex="1" parent="1">
          <mxGeometry x="510" y="165" width="100" height="555" as="geometry" />
        </mxCell>
        <mxCell id="D2boBdj_0Zb_IWKGCsvH-7" value="" style="html=1;points=[];perimeter=orthogonalPerimeter;outlineConnect=0;targetShapes=umlLifeline;portConstraint=eastwest;newEdgeStyle={&quot;edgeStyle&quot;:&quot;elbowEdgeStyle&quot;,&quot;elbow&quot;:&quot;vertical&quot;,&quot;curved&quot;:0,&quot;rounded&quot;:0};" vertex="1" parent="D2boBdj_0Zb_IWKGCsvH-6">
          <mxGeometry x="45" y="60" width="10" height="40" as="geometry" />
        </mxCell>
        <mxCell id="D2boBdj_0Zb_IWKGCsvH-17" value="" style="html=1;points=[];perimeter=orthogonalPerimeter;outlineConnect=0;targetShapes=umlLifeline;portConstraint=eastwest;newEdgeStyle={&quot;edgeStyle&quot;:&quot;elbowEdgeStyle&quot;,&quot;elbow&quot;:&quot;vertical&quot;,&quot;curved&quot;:0,&quot;rounded&quot;:0};" vertex="1" parent="D2boBdj_0Zb_IWKGCsvH-6">
          <mxGeometry x="45" y="305" width="10" height="25" as="geometry" />
        </mxCell>
        <mxCell id="D2boBdj_0Zb_IWKGCsvH-9" value="return activityList" style="html=1;verticalAlign=bottom;endArrow=open;dashed=1;endSize=8;edgeStyle=elbowEdgeStyle;elbow=vertical;curved=0;rounded=0;" edge="1" parent="1" source="D2boBdj_0Zb_IWKGCsvH-7" target="D2boBdj_0Zb_IWKGCsvH-4">
          <mxGeometry relative="1" as="geometry">
            <mxPoint x="485" y="250" as="sourcePoint" />
            <mxPoint x="280" y="250" as="targetPoint" />
            <Array as="points">
              <mxPoint x="500" y="260" />
              <mxPoint x="360" y="250" />
            </Array>
          </mxGeometry>
        </mxCell>
        <mxCell id="D2boBdj_0Zb_IWKGCsvH-10" value="SystemError&lt;br&gt;:GUI" style="shape=umlLifeline;perimeter=lifelinePerimeter;whiteSpace=wrap;html=1;container=1;dropTarget=0;collapsible=0;recursiveResize=0;outlineConnect=0;portConstraint=eastwest;newEdgeStyle={&quot;edgeStyle&quot;:&quot;elbowEdgeStyle&quot;,&quot;elbow&quot;:&quot;vertical&quot;,&quot;curved&quot;:0,&quot;rounded&quot;:0};" vertex="1" parent="1">
          <mxGeometry x="374" y="275" width="80" height="165" as="geometry" />
        </mxCell>
        <mxCell id="D2boBdj_0Zb_IWKGCsvH-11" value="" style="html=1;points=[];perimeter=orthogonalPerimeter;outlineConnect=0;targetShapes=umlLifeline;portConstraint=eastwest;newEdgeStyle={&quot;edgeStyle&quot;:&quot;elbowEdgeStyle&quot;,&quot;elbow&quot;:&quot;vertical&quot;,&quot;curved&quot;:0,&quot;rounded&quot;:0};" vertex="1" parent="D2boBdj_0Zb_IWKGCsvH-10">
          <mxGeometry x="35" y="55" width="10" height="70" as="geometry" />
        </mxCell>
        <mxCell id="D2boBdj_0Zb_IWKGCsvH-12" value="" style="shape=umlDestroy;whiteSpace=wrap;html=1;strokeWidth=3;targetShapes=umlLifeline;" vertex="1" parent="D2boBdj_0Zb_IWKGCsvH-10">
          <mxGeometry x="25" y="135" width="30" height="30" as="geometry" />
        </mxCell>
        <mxCell id="D2boBdj_0Zb_IWKGCsvH-13" value="display(ErrorMessage)" style="html=1;align=left;spacingLeft=2;endArrow=block;rounded=0;edgeStyle=orthogonalEdgeStyle;curved=0;rounded=0;" edge="1" parent="D2boBdj_0Zb_IWKGCsvH-10" source="D2boBdj_0Zb_IWKGCsvH-11" target="D2boBdj_0Zb_IWKGCsvH-11">
          <mxGeometry relative="1" as="geometry">
            <mxPoint x="49" y="55" as="sourcePoint" />
            <Array as="points">
              <mxPoint x="60" y="55" />
              <mxPoint x="60" y="85" />
            </Array>
            <mxPoint x="54" y="84.99999999999989" as="targetPoint" />
          </mxGeometry>
        </mxCell>
        <mxCell id="D2boBdj_0Zb_IWKGCsvH-14" value="[activityList == null]&lt;br&gt;&amp;lt;&amp;lt;create&amp;gt;&amp;gt;" style="html=1;verticalAlign=bottom;endArrow=block;edgeStyle=elbowEdgeStyle;elbow=vertical;curved=0;rounded=0;entryX=0;entryY=0.111;entryDx=0;entryDy=0;entryPerimeter=0;" edge="1" parent="1" source="D2boBdj_0Zb_IWKGCsvH-4" target="D2boBdj_0Zb_IWKGCsvH-10">
          <mxGeometry width="80" relative="1" as="geometry">
            <mxPoint x="230" y="290" as="sourcePoint" />
            <mxPoint x="320" y="295" as="targetPoint" />
          </mxGeometry>
        </mxCell>
        <mxCell id="D2boBdj_0Zb_IWKGCsvH-15" value="destroy()" style="html=1;verticalAlign=bottom;endArrow=block;edgeStyle=elbowEdgeStyle;elbow=horizontal;curved=0;rounded=0;" edge="1" parent="1" source="D2boBdj_0Zb_IWKGCsvH-4" target="D2boBdj_0Zb_IWKGCsvH-11">
          <mxGeometry width="80" relative="1" as="geometry">
            <mxPoint x="240" y="390" as="sourcePoint" />
            <mxPoint x="375" y="390.03474903474904" as="targetPoint" />
            <Array as="points">
              <mxPoint x="310" y="400" />
            </Array>
          </mxGeometry>
        </mxCell>
        <mxCell id="D2boBdj_0Zb_IWKGCsvH-16" value="queryAllActivityInfo()" style="html=1;verticalAlign=bottom;endArrow=block;edgeStyle=elbowEdgeStyle;elbow=vertical;curved=0;rounded=0;" edge="1" parent="1" source="D2boBdj_0Zb_IWKGCsvH-4" target="D2boBdj_0Zb_IWKGCsvH-7">
          <mxGeometry width="80" relative="1" as="geometry">
            <mxPoint x="310" y="230" as="sourcePoint" />
            <mxPoint x="390" y="230" as="targetPoint" />
            <Array as="points">
              <mxPoint x="400" y="230" />
            </Array>
          </mxGeometry>
        </mxCell>
        <mxCell id="D2boBdj_0Zb_IWKGCsvH-18" value="queryNewCarInfo()" style="html=1;verticalAlign=bottom;endArrow=block;edgeStyle=elbowEdgeStyle;elbow=vertical;curved=0;rounded=0;" edge="1" parent="1" target="D2boBdj_0Zb_IWKGCsvH-17">
          <mxGeometry width="80" relative="1" as="geometry">
            <mxPoint x="260" y="470" as="sourcePoint" />
            <mxPoint x="500" y="480" as="targetPoint" />
            <Array as="points">
              <mxPoint x="410" y="470" />
            </Array>
          </mxGeometry>
        </mxCell>
        <mxCell id="D2boBdj_0Zb_IWKGCsvH-21" value="return carInfoList" style="html=1;verticalAlign=bottom;endArrow=open;dashed=1;endSize=8;edgeStyle=elbowEdgeStyle;elbow=vertical;curved=0;rounded=0;" edge="1" parent="1" source="D2boBdj_0Zb_IWKGCsvH-17" target="D2boBdj_0Zb_IWKGCsvH-4">
          <mxGeometry relative="1" as="geometry">
            <mxPoint x="430" y="490" as="sourcePoint" />
            <mxPoint x="350" y="490" as="targetPoint" />
            <Array as="points">
              <mxPoint x="410" y="490" />
            </Array>
          </mxGeometry>
        </mxCell>
        <mxCell id="D2boBdj_0Zb_IWKGCsvH-22" value="SystemError&lt;br&gt;:GUI" style="shape=umlLifeline;perimeter=lifelinePerimeter;whiteSpace=wrap;html=1;container=1;dropTarget=0;collapsible=0;recursiveResize=0;outlineConnect=0;portConstraint=eastwest;newEdgeStyle={&quot;edgeStyle&quot;:&quot;elbowEdgeStyle&quot;,&quot;elbow&quot;:&quot;vertical&quot;,&quot;curved&quot;:0,&quot;rounded&quot;:0};" vertex="1" parent="1">
          <mxGeometry x="360" y="510" width="80" height="165" as="geometry" />
        </mxCell>
        <mxCell id="D2boBdj_0Zb_IWKGCsvH-23" value="" style="html=1;points=[];perimeter=orthogonalPerimeter;outlineConnect=0;targetShapes=umlLifeline;portConstraint=eastwest;newEdgeStyle={&quot;edgeStyle&quot;:&quot;elbowEdgeStyle&quot;,&quot;elbow&quot;:&quot;vertical&quot;,&quot;curved&quot;:0,&quot;rounded&quot;:0};" vertex="1" parent="D2boBdj_0Zb_IWKGCsvH-22">
          <mxGeometry x="35" y="55" width="10" height="70" as="geometry" />
        </mxCell>
        <mxCell id="D2boBdj_0Zb_IWKGCsvH-24" value="" style="shape=umlDestroy;whiteSpace=wrap;html=1;strokeWidth=3;targetShapes=umlLifeline;" vertex="1" parent="D2boBdj_0Zb_IWKGCsvH-22">
          <mxGeometry x="25" y="135" width="30" height="30" as="geometry" />
        </mxCell>
        <mxCell id="D2boBdj_0Zb_IWKGCsvH-25" value="display(ErrorMessage)" style="html=1;align=left;spacingLeft=2;endArrow=block;rounded=0;edgeStyle=orthogonalEdgeStyle;curved=0;rounded=0;" edge="1" parent="D2boBdj_0Zb_IWKGCsvH-22" source="D2boBdj_0Zb_IWKGCsvH-23" target="D2boBdj_0Zb_IWKGCsvH-23">
          <mxGeometry relative="1" as="geometry">
            <mxPoint x="49" y="55" as="sourcePoint" />
            <Array as="points">
              <mxPoint x="60" y="55" />
              <mxPoint x="60" y="85" />
            </Array>
            <mxPoint x="54" y="84.99999999999989" as="targetPoint" />
          </mxGeometry>
        </mxCell>
        <mxCell id="D2boBdj_0Zb_IWKGCsvH-26" value="[carInfoList == null]&lt;br&gt;&amp;lt;&amp;lt;create&amp;gt;&amp;gt;" style="html=1;verticalAlign=bottom;endArrow=block;edgeStyle=elbowEdgeStyle;elbow=vertical;curved=0;rounded=0;entryX=0;entryY=0.111;entryDx=0;entryDy=0;entryPerimeter=0;" edge="1" parent="1" target="D2boBdj_0Zb_IWKGCsvH-22" source="D2boBdj_0Zb_IWKGCsvH-4">
          <mxGeometry width="80" relative="1" as="geometry">
            <mxPoint x="270" y="528" as="sourcePoint" />
            <mxPoint x="330" y="530" as="targetPoint" />
          </mxGeometry>
        </mxCell>
        <mxCell id="D2boBdj_0Zb_IWKGCsvH-27" value="destroy()" style="html=1;verticalAlign=bottom;endArrow=block;edgeStyle=elbowEdgeStyle;elbow=horizontal;curved=0;rounded=0;" edge="1" parent="1" target="D2boBdj_0Zb_IWKGCsvH-23" source="D2boBdj_0Zb_IWKGCsvH-4">
          <mxGeometry width="80" relative="1" as="geometry">
            <mxPoint x="270" y="635" as="sourcePoint" />
            <mxPoint x="385" y="625.034749034749" as="targetPoint" />
            <Array as="points">
              <mxPoint x="320" y="635" />
            </Array>
          </mxGeometry>
        </mxCell>
        <mxCell id="D2boBdj_0Zb_IWKGCsvH-32" value="[carInfoList != null]&lt;br&gt;display(activityList)" style="html=1;align=center;spacingLeft=2;endArrow=block;rounded=0;edgeStyle=orthogonalEdgeStyle;curved=0;rounded=0;" edge="1" parent="1">
          <mxGeometry x="0.0909" y="-50" relative="1" as="geometry">
            <mxPoint x="250" y="470" as="sourcePoint" />
            <Array as="points">
              <mxPoint x="210" y="470" />
              <mxPoint x="210" y="500" />
            </Array>
            <mxPoint x="250" y="500" as="targetPoint" />
            <mxPoint as="offset" />
          </mxGeometry>
        </mxCell>
      </root>
    </mxGraphModel>
  </diagram>
</mxfile>
